<svg xmlns="http://www.w3.org/2000/svg" viewBox="0 0 320 320">
  <defs>
    <linearGradient id="magnesiumGradient" x1="0%" x2="100%" y1="0%" y2="100%">
      <stop offset="0%" stop-color="#f97316"/>
      <stop offset="100%" stop-color="#fb923c"/>
    </linearGradient>
    <linearGradient id="pillGradient" x1="0%" x2="100%" y1="100%" y2="0%">
      <stop offset="0%" stop-color="#1e293b"/>
      <stop offset="100%" stop-color="#475569"/>
    </linearGradient>
  </defs>
  <rect width="320" height="320" rx="32" fill="#fff7ed"/>
  <g transform="translate(60 40)">
    <rect x="32" y="0" width="136" height="240" rx="32" fill="url(#magnesiumGradient)"/>
    <rect x="52" y="20" width="96" height="80" rx="18" fill="#fde68a" opacity="0.5"/>
    <rect x="52" y="110" width="96" height="90" rx="18" fill="#ffffff" opacity="0.85"/>
    <path d="M52 190h96v12c0 22-18 40-40 40h-16c-22 0-40-18-40-40z" fill="#1f2937" opacity="0.12"/>
    <circle cx="100" cy="155" r="32" fill="#fef9c3" stroke="#fb923c" stroke-width="6"/>
    <text x="100" y="162" text-anchor="middle" font-family="Inter, Arial, sans-serif" font-size="26" fill="#f97316" font-weight="600">Mg</text>
  </g>
  <g transform="translate(210 180) rotate(-12)">
    <rect x="0" y="0" width="60" height="120" rx="30" fill="url(#pillGradient)"/>
    <rect x="0" y="52" width="60" height="28" fill="#f97316" opacity="0.8"/>
  </g>
</svg>
