<svg xmlns="http://www.w3.org/2000/svg" viewBox="0 0 128 128">
  <defs>
    <linearGradient id="g" x1="0" x2="1">
      <stop offset="0%" stop-color="#ff7a1a"/>
      <stop offset="100%" stop-color="#ffb347"/>
    </linearGradient>
  </defs>
  <rect width="128" height="128" rx="24" fill="#0f0e0d"/>
  <circle cx="64" cy="64" r="40" fill="url(#g)" opacity="0.15"/>
  <path d="M32 78c8 10 20 16 32 16s24-6 32-16" stroke="url(#g)" stroke-width="6" fill="none" stroke-linecap="round"/>
  <path d="M44 64c0-11 9-20 20-20s20 9 20 20-9 20-20 20-20-9-20-20zm14 0c0 3.3 2.7 6 6 6s6-2.7 6-6-2.7-6-6-6-6 2.7-6 6z" fill="url(#g)"/>
  <text x="64" y="112" text-anchor="middle" font-size="16" fill="#fff" font-family="ui-sans-serif, system-ui, -apple-system">Orbucell</text>
  
</svg>

